<?xml version="1.0" ?><svg viewBox="0 0 512 512" xmlns="http://www.w3.org/2000/svg"><g id="Cleaning_hygiene"><path d="M85.5624,174.9673c14.249,6.42,19.0005,11.1709,25.42,25.42a6,6,0,0,0,10.94,0c6.42-14.248,11.1714-19,25.4209-25.42a6,6,0,0,0,0-10.9414c-14.249-6.419-19.0005-11.1709-25.42-25.42a6,6,0,0,0-10.94,0c-6.42,14.249-11.1714,19.0009-25.42,25.42a6,6,0,0,0-.0005,10.9414Zm30.8906-20.875a44.2886,44.2886,0,0,0,15.4048,15.4043,44.3087,44.3087,0,0,0-15.4048,15.4043,44.3073,44.3073,0,0,0-15.4043-15.4043A44.2914,44.2914,0,0,0,116.453,154.0923Z"/><path d="M463.1387,384.1265a7.9924,7.9924,0,0,1-5.12-7.59c0-.17,0-.33.01-.49a66.5655,66.5655,0,0,0,0-7.34c-1.82-33.59-29.58-60.96-63.2-62.32a65.4988,65.4988,0,0,0-48.45,18.35A66.1879,66.1879,0,0,0,335.09,339.032a54.7666,54.7666,0,0,0-42.4613-20.1155H239.77V56.5806a32.4087,32.4087,0,0,0-64.8174,0V318.9165H122.0986a54.88,54.88,0,0,0-54.88,54.88v40h-24.89a28.3742,28.3742,0,0,0-28.34,28.34v14.71a30.9217,30.9217,0,0,0,11.1479,23.7747c.0949.0791.1857.1621.2851.2353a30.8463,30.8463,0,0,0,19.557,6.97h61.267l.0218.0012.0153-.0012h66.53l.0217.0012.0154-.0012h66.53l.0217.0012.0154-.0012H443.6987a54.9971,54.9971,0,0,0,38.8-16.26,52.7053,52.7053,0,0,0,15.51-37.8A53.8292,53.8292,0,0,0,463.1387,384.1265ZM186.953,100.0317h17.5435a6,6,0,0,0,0-12H186.953V56.5806a20.4087,20.4087,0,0,1,40.8174,0V318.9165H186.953Zm67.9387,375.7947c13.5628-14.9172,14.6326-27.8508,14.678-28.5173a6.03,6.03,0,0,0-5.5727-6.4307,5.9647,5.9647,0,0,0-6.3936,5.541c-.0556.6009-1.55,14.5081-20.2673,29.407H188.3243c13.5629-14.9172,14.6326-27.8508,14.678-28.5173a6.03,6.03,0,0,0-5.5727-6.4307,5.9607,5.9607,0,0,0-6.3936,5.541c-.0556.6009-1.55,14.5081-20.2673,29.407h-49.012c13.5626-14.9172,14.6323-27.8508,14.6778-28.5173a6.03,6.03,0,0,0-5.5728-6.4307,5.9633,5.9633,0,0,0-6.3936,5.541c-.0556.6009-1.55,14.5081-20.2668,29.407H46.6685c17.1311-8.53,25.2-20.9043,28.9911-30.8044a58.5283,58.5283,0,0,0,3.786-19.2256H264.1987a6,6,0,0,0,0-12H79.2187v-40a42.88,42.88,0,0,1,42.88-42.88h58.835l.0193.001H233.77l.0193-.001h58.8391a42.88,42.88,0,0,1,42.88,42.88v40h-34.27a6,6,0,0,0,0,12h33.5772c-.1313,3.58-.3772,6.07-.3772,6.07a58.1924,58.1924,0,0,1-19.1,33.48,41.4239,41.4239,0,0,1-27.73,10.48Z"/><path d="M132.5136,348.0591H117.6293A23.2629,23.2629,0,0,0,94.393,371.2964v8.7851a6,6,0,0,0,12,0v-8.7851a11.25,11.25,0,0,1,11.2363-11.2373h14.8843a6,6,0,0,0,0-12Z"/><path d="M172.0189,348.0591H154.9423a6,6,0,0,0,0,12h17.0766a6,6,0,0,0,0-12Z"/><path d="M289.2391,275.4673A23.5574,23.5574,0,1,0,312.7968,251.91,23.5846,23.5846,0,0,0,289.2391,275.4673Zm35.1148,0A11.5574,11.5574,0,1,1,312.7968,263.91,11.57,11.57,0,0,1,324.3539,275.4673Z"/></g></svg>