<svg version="1.2" xmlns="http://www.w3.org/2000/svg" viewBox="0 0 286 182" width="286" height="182">
	<title>-e-</title>
	<style>
		.s0 { fill: #ffffff } 
	</style>
	<g id="-e-">
		<path id="Shape 1" class="s0" d="m50 182c-27.7 0-50-22.4-50-50 0-27.7 22.3-50 50-50 27.6 0 50 22.3 50 50 0 27.6-22.4 50-50 50z"/>
		<path id="Shape 1 copy" class="s0" d="m92 120c-27.7 0-50-22.4-50-50 0-27.7 22.3-50 50-50 27.6 0 50 22.3 50 50 0 27.6-22.4 50-50 50z"/>
		<path id="Shape 4" class="s0" d="m186.2 114.5c-31.6 0-57.2-25.6-57.2-57.3 0-31.6 25.6-57.2 57.2-57.2 31.7 0 57.3 25.6 57.3 57.2 0 31.7-25.6 57.3-57.3 57.3z"/>
		<path id="Shape 3" class="s0" d="m44 82h196v100h-196z"/>
		<path id="Shape 2" class="s0" d="m236 182c-27.7 0-50-22.4-50-50 0-27.7 22.3-50 50-50 27.6 0 50 22.3 50 50 0 27.6-22.4 50-50 50z"/>
	</g>
</svg>